<?xml version="1.0" standalone="no"?>
<!DOCTYPE svg PUBLIC "-//W3C//DTD SVG 20010904//EN"
 "http://www.w3.org/TR/2001/REC-SVG-20010904/DTD/svg10.dtd">
<svg version="1.0" xmlns="http://www.w3.org/2000/svg"
 width="1182.000000pt" height="545.000000pt" viewBox="0 0 1182.000000 545.000000"
 preserveAspectRatio="xMidYMid meet">

<g transform="translate(0.000000,545.000000) scale(0.100000,-0.100000)"
fill="#000000" stroke="none">
<path d="M0 2730 l0 -2710 5905 0 5905 0 0 2710 0 2710 -5905 0 -5905 0 0
-2710z m1885 360 c402 -336 756 -638 789 -671 32 -33 60 -58 61 -57 1 2 -1 50
-6 108 -4 58 -8 358 -8 668 l-1 562 205 0 205 0 0 -975 0 -975 -153 0 -152 0
-715 601 c-393 330 -749 634 -790 675 -42 41 -78 74 -80 74 -3 0 -2 -35 2 -77
3 -43 7 -347 7 -675 l1 -598 -205 0 -205 0 0 975 0 975 158 0 158 0 729 -610z
m2693 -362 l-3 -973 -227 -3 -228 -2 0 975 0 975 230 0 230 0 -2 -972z m2852
945 c149 -51 220 -169 220 -368 l0 -73 -177 -42 c-98 -23 -188 -44 -200 -47
-23 -5 -23 -4 -23 106 l0 111 -635 0 -635 0 0 -205 0 -205 623 0 c353 0 661
-5 712 -10 200 -23 288 -79 335 -215 22 -65 24 -88 28 -325 5 -282 -4 -370
-46 -463 -51 -115 -142 -161 -362 -178 -76 -7 -382 -9 -775 -6 -545 3 -661 7
-716 20 -84 20 -159 57 -192 96 -51 61 -86 199 -87 338 0 50 3 63 18 67 35 10
359 76 375 76 15 0 17 -14 17 -110 l0 -110 685 0 685 0 0 215 0 215 -597 0
c-329 0 -647 4 -708 10 -253 21 -345 91 -381 289 -18 101 -18 451 0 552 23
128 76 207 165 245 96 42 126 43 881 41 720 -2 725 -2 790 -24z m3323 -1 c114
-39 172 -105 202 -234 22 -96 22 -1318 -1 -1417 -22 -97 -67 -167 -130 -203
-109 -60 -114 -61 -962 -65 -814 -5 -957 0 -1075 37 -126 39 -184 125 -207
302 -13 105 -13 1176 0 1278 20 149 61 226 148 273 103 56 99 56 1067 54 l890
-2 68 -23z"/>
<path d="M9030 2740 l0 -610 745 0 745 0 0 610 0 610 -745 0 -745 0 0 -610z"/>
</g>
</svg>
